<?xml version="1.0" encoding="UTF-8" standalone="no"?>
<!-- Created with Inkscape (http://www.inkscape.org/) -->

<svg
   width="210mm"
   height="297mm"
   viewBox="0 0 210 297"
   version="1.1"
   id="svg5"
   inkscape:version="1.2.2 (b0a84865, 2022-12-01)"
   sodipodi:docname="geopick-logo.svg"
   xml:space="preserve"
   xmlns:inkscape="http://www.inkscape.org/namespaces/inkscape"
   xmlns:sodipodi="http://sodipodi.sourceforge.net/DTD/sodipodi-0.dtd"
   xmlns="http://www.w3.org/2000/svg"
   xmlns:svg="http://www.w3.org/2000/svg"><sodipodi:namedview
     id="namedview7"
     pagecolor="#ffffff"
     bordercolor="#666666"
     borderopacity="1.0"
     inkscape:showpageshadow="2"
     inkscape:pageopacity="0.0"
     inkscape:pagecheckerboard="0"
     inkscape:deskcolor="#d1d1d1"
     inkscape:document-units="mm"
     showgrid="false"
     inkscape:current-layer="layer1" /><defs
     id="defs2"><clipPath
       clipPathUnits="userSpaceOnUse"
       id="clipPath5495"><path
         style="fill:#9a5b34;fill-opacity:1;stroke:#a05a2c;stroke-width:0.564999;stroke-linecap:round;stroke-linejoin:round"
         id="path5497"
         d="m 66.868397,128.33094 c 4.497274,-1.6506 9.356286,-2.36112 14.162019,-3.05238 6.819826,-0.86782 13.716196,-1.43293 20.617884,-1.50673 1.45087,-0.0155 2.90188,0.0193 4.35283,0.0289 7.00051,0.18627 13.96773,1.0452 20.77458,2.42219 1.33656,0.27038 2.65941,0.5866 3.98911,0.87991 5.34762,1.27528 10.61755,2.84652 15.5833,4.96182 3.17227,1.35132 3.89974,1.82284 6.87619,3.41074 4.04331,2.34252 7.73053,5.09476 11.10706,8.08657 1.40766,1.24727 2.83789,2.66374 4.17848,3.96491 2.86039,2.75935 5.58004,5.61916 8.08506,8.61251 1.13025,1.39033 2.2154,2.82028 2.93617,4.39746 0,0 3.91561,-1.84042 3.91561,-1.84042 v 0 c -0.81273,-1.57373 -1.93223,-3.01537 -3.10384,-4.41559 -2.56675,-2.97878 -5.33595,-5.82654 -8.25144,-8.56984 -1.35748,-1.297 -2.8161,-2.71738 -4.23678,-3.96208 -3.42003,-2.9964 -7.13346,-5.76534 -11.20368,-8.12596 -3.01487,-1.60673 -3.71603,-2.06324 -6.92577,-3.43527 -4.9791,-2.12836 -10.25936,-3.72113 -15.62102,-5.01462 -1.33314,-0.29695 -2.65931,-0.61699 -3.99944,-0.89086 -6.82753,-1.39523 -13.82027,-2.26237 -20.84457,-2.46682 -1.45411,-0.0135 -2.90821,-0.0522 -4.36234,-0.0404 -6.880078,0.0559 -13.755842,0.60032 -20.562444,1.41546 -4.730258,0.64101 -9.497415,1.30417 -13.970775,2.80591 0,0 -3.496194,2.33456 -3.496194,2.33456 z" /></clipPath><clipPath
       clipPathUnits="userSpaceOnUse"
       id="clipPath6327"><rect
         style="font-variation-settings:normal;opacity:1;vector-effect:none;fill:#0000ff;fill-opacity:0.195519;fill-rule:evenodd;stroke-width:0.264583;stroke-linecap:butt;stroke-linejoin:miter;stroke-miterlimit:4;stroke-dasharray:none;stroke-dashoffset:0;stroke-opacity:1;-inkscape-stroke:none;stop-color:#000000;stop-opacity:1"
         id="rect6329"
         width="126.53426"
         height="39.747074"
         x="64.908058"
         y="120.69983" /></clipPath><clipPath
       clipPathUnits="userSpaceOnUse"
       id="clipPath9267"><rect
         style="font-variation-settings:normal;opacity:1;vector-effect:none;fill:#0000ff;fill-opacity:0.195519;fill-rule:evenodd;stroke-width:0.264583;stroke-linecap:butt;stroke-linejoin:miter;stroke-miterlimit:4;stroke-dasharray:none;stroke-dashoffset:0;stroke-opacity:1;-inkscape-stroke:none;stop-color:#000000;stop-opacity:1"
         id="rect9269"
         width="124.711"
         height="34.277294"
         x="64.908066"
         y="123.65267" /></clipPath></defs><g
     inkscape:label="Layer 1"
     inkscape:groupmode="layer"
     id="layer1"><circle
       id="path2358"
       style="fill:#9a5b34;stroke:#a05a2c;stroke-width:0.264583"
       cx="61.990845"
       cy="177.9502"
       r="0.10291118" /><g
       id="g13131"
       inkscape:export-filename="geopick-logo.png"
       inkscape:export-xdpi="200"
       inkscape:export-ydpi="200"><path
         id="path6323"
         clip-path="url(#clipPath9267)"
         style="fill:none;stroke:#a05a2c;stroke-width:2.5;stroke-linecap:round;stroke-linejoin:round"
         d="M 235.68053,258.53406 A 140.57336,133.64502 0 0 1 95.10717,392.17908 140.57336,133.64502 0 0 1 -45.466194,258.53406 140.57336,133.64502 0 0 1 95.10717,124.88904 140.57336,133.64502 0 0 1 235.68053,258.53406 Z" /><text
         xml:space="preserve"
         style="font-style:normal;font-variant:normal;font-weight:bold;font-stretch:normal;font-size:21.1667px;line-height:1.25;font-family:Copperplate;-inkscape-font-specification:'Copperplate, Bold';font-variant-ligatures:normal;font-variant-caps:normal;font-variant-numeric:normal;font-variant-east-asian:normal;letter-spacing:0px;stroke-width:0.264583;fill:#985c35;fill-opacity:1"
         x="65.454498"
         y="148.41338"
         id="text236"><tspan
           sodipodi:role="line"
           id="tspan234"
           style="font-style:normal;font-variant:normal;font-weight:bold;font-stretch:normal;font-size:21.1667px;font-family:Copperplate;-inkscape-font-specification:'Copperplate, Bold';font-variant-ligatures:normal;font-variant-caps:normal;font-variant-numeric:normal;font-variant-east-asian:normal;stroke-width:0.264583;fill:#985c35;fill-opacity:1"
           x="65.454498"
           y="148.41338">GeoPick</tspan></text><text
         xml:space="preserve"
         style="font-style:normal;font-variant:normal;font-weight:normal;font-stretch:normal;font-size:9.55016px;line-height:1.25;font-family:Copperplate;-inkscape-font-specification:'Copperplate, Normal';font-variant-ligatures:normal;font-variant-caps:normal;font-variant-numeric:normal;font-variant-east-asian:normal;letter-spacing:0px;fill:#985c35;fill-opacity:1;stroke-width:0.264583"
         id="text290"
         y="127.19121"
         x="81.486008"
         transform="scale(0.80999347,1.2345779)"><tspan
           sodipodi:role="line"
           id="tspan288"
           style="font-style:normal;font-variant:normal;font-weight:normal;font-stretch:normal;font-size:9.55016px;font-family:Copperplate;-inkscape-font-specification:'Copperplate, Normal';font-variant-ligatures:normal;font-variant-caps:normal;font-variant-numeric:normal;font-variant-east-asian:normal;fill:#985c35;fill-opacity:1;stroke-width:0.264583"
           x="81.486008"
           y="127.19121">Georeferencing made easy</tspan></text><circle
         id="path5435"
         style="fill:#9a5b34;stroke:#a05a2c;stroke-width:0.264583"
         cx="68.189926"
         cy="127.26357"
         r="0.10291118" /></g><rect
       style="font-variation-settings:normal;opacity:1;vector-effect:none;fill:#ffffff;fill-opacity:1;fill-rule:evenodd;stroke-width:0.264583;stroke-linecap:butt;stroke-linejoin:miter;stroke-miterlimit:4;stroke-dasharray:none;stroke-dashoffset:0;stroke-opacity:1;-inkscape-stroke:none;stop-color:#000000;stop-opacity:1"
       id="rect6331"
       width="35.37125"
       height="33.547985"
       x="161.453"
       y="208.19435" /><path
       style="fill:#ffffff;fill-opacity:1;stroke:#a05a2c;stroke-width:0;stroke-linecap:round;stroke-linejoin:round;stroke-dasharray:none"
       id="path9336"
       d="m 50.303197,98.427084 c 0.566269,-0.137488 1.127058,-0.299916 1.698807,-0.412465 6.536436,-1.286687 13.256548,-1.498353 19.894754,-1.664324 6.496457,-0.08051 13.004485,-0.02238 19.483051,0.517686 4.785561,0.398934 6.292712,0.671002 11.090181,1.327452 9.04705,1.477534 18.12832,2.995687 26.97495,5.444357 1.60024,0.44293 3.18003,0.95665 4.77005,1.43498 6.48328,2.10437 12.84834,4.68077 18.75647,8.10483 0.79004,0.45787 1.55265,0.96151 2.32898,1.44227 1.96252,1.33538 3.88855,2.78734 5.35601,4.67506 0.40664,0.52309 0.66384,0.96061 1.00875,1.51157 0.36995,0.66155 0.2072,0.35147 0.49518,0.92657 0,0 3.39706,-1.94551 3.39706,-1.94551 v 0 c -0.3256,-0.57895 -0.1438,-0.26694 -0.55088,-0.93279 -0.59764,-0.89524 -1.21523,-1.7638 -1.97357,-2.53532 -1.3947,-1.41894 -3.02456,-2.58159 -4.67951,-3.67233 -0.79589,-0.47561 -1.57885,-0.97355 -2.38766,-1.42684 -6.00484,-3.36539 -12.438,-5.91765 -18.97209,-8.04515 -1.59851,-0.47845 -3.1867,-0.99283 -4.79554,-1.43534 -8.8733,-2.440576 -17.98355,-3.920811 -27.04744,-5.437961 -4.79514,-0.678548 -6.277425,-0.95345 -11.061055,-1.377212 -6.461479,-0.572399 -12.954913,-0.681604 -19.437622,-0.588116 -7.101573,0.157322 -14.249802,0.402312 -21.251024,1.696887 0,0 -3.097852,2.391696 -3.097852,2.391696 z" /><circle
       id="path9338"
       style="fill:#ffffff;stroke:#a05a2c;stroke-width:0.264583"
       cx="127.26357"
       cy="101.37326"
       r="0" /></g></svg>
